<svg xmlns="http://www.w3.org/2000/svg" viewBox="0 0 540 130" fill="none">
  <!-- Skyronet Radar Icon -->
  <g transform="translate(10, 10)">
    <!-- Top Red Arcs -->
    <path d="M 18 42 A 44 44 0 0 1 102 42" stroke="#ED2224" stroke-width="10" stroke-linecap="round" fill="none" />
    <path d="M 32 52 A 30 30 0 0 1 88 52" stroke="#ED2224" stroke-width="8" stroke-linecap="round" fill="none" />
    <polygon points="60,72 48,56 72,56" fill="#ED2224" />

    <!-- Bottom Black Arcs -->
    <path d="M 32 62 A 30 30 0 0 0 54 83" stroke="#231F20" stroke-width="8" stroke-linecap="round" fill="none" />
    <path d="M 88 62 A 30 30 0 0 1 66 83" stroke="#231F20" stroke-width="8" stroke-linecap="round" fill="none" />
    <path d="M 18 72 A 44 44 0 0 0 53 98" stroke="#231F20" stroke-width="10" stroke-linecap="round" fill="none" />
    <path d="M 102 72 A 44 44 0 0 1 67 98" stroke="#231F20" stroke-width="10" stroke-linecap="round" fill="none" />
  </g>

  <!-- Typography Group -->
  <g fill="#231F20">
    <text x="135" y="68" font-family="system-ui, -apple-system, 'Segoe UI', Roboto, 'Helvetica Neue', Arial, sans-serif" font-weight="900" font-size="44" letter-spacing="1.5">SKYRONET</text>
    <text x="137" y="94" font-family="system-ui, -apple-system, 'Segoe UI', Roboto, 'Helvetica Neue', Arial, sans-serif" font-weight="800" font-size="17" letter-spacing="5">TECHNOLOGY</text>
  </g>
</svg>