<svg xmlns="http://www.w3.org/2000/svg" viewBox="0 0 200 200" fill="none">
  <!-- Top Red Radar Waves -->
  <path d="M 43 50 A 72 72 0 0 1 157 50" stroke="#E52330" stroke-width="16" stroke-linecap="round" fill="none" />
  <path d="M 62 70 A 48 48 0 0 1 138 70" stroke="#E52330" stroke-width="14" stroke-linecap="round" fill="none" />

  <!-- Center Red Inverted Pointer -->
  <polygon points="100,116 80,78 120,78" fill="#E52330" />

  <!-- Black Outer Side & Bottom Framing Arcs (Left & Right with bottom slit) -->
  <path d="M 43 64 A 72 72 0 0 0 92 172" stroke="#262626" stroke-width="16" stroke-linecap="round" fill="none" />
  <path d="M 157 64 A 72 72 0 0 1 108 172" stroke="#262626" stroke-width="16" stroke-linecap="round" fill="none" />

  <!-- Black Inner Side & Bottom Framing Arcs (Left & Right with bottom slit) -->
  <path d="M 62 84 A 48 48 0 0 0 94 148" stroke="#262626" stroke-width="14" stroke-linecap="round" fill="none" />
  <path d="M 138 84 A 48 48 0 0 1 106 148" stroke="#262626" stroke-width="14" stroke-linecap="round" fill="none" />
</svg>
